<?xml version="1.0" encoding="UTF-8"?>
<svg version="1.1" xmlns="http://www.w3.org/2000/svg" width="2763" height="2401">
<path d="M0 0 C11.22 0 22.44 0 34 0 C34 75.24 34 150.48 34 228 C58.04750122 227.98428955 58.04750122 227.98428955 82.58081055 227.96826172 C93.29383843 227.9615605 104.00686624 227.95490114 114.71989441 227.94869995 C115.74126421 227.94810795 115.74126421 227.94810795 116.78326775 227.94750399 C139.74962003 227.93422863 162.71597272 227.92373792 185.68232727 227.91531372 C186.80855201 227.91489955 186.80855201 227.91489955 187.95752876 227.91447701 C204.2829988 227.90848828 220.60846897 227.90294834 236.93393932 227.89786934 C244.94236908 227.89537512 252.9507988 227.89278195 260.95922852 227.89013672 C262.15449807 227.88974444 262.15449807 227.88974444 263.37391448 227.88934424 C289.1048508 227.88085334 314.83577821 227.86585479 340.56670916 227.84740556 C367.05484264 227.82844834 393.54297121 227.81620795 420.03111136 227.81217002 C423.79033638 227.81159389 427.54956139 227.81094262 431.30878639 227.81024551 C432.04850416 227.81011067 432.78822194 227.80997582 433.5503554 227.80983689 C445.35779481 227.80749263 457.16521885 227.79826919 468.97265204 227.78633593 C480.90364306 227.77442961 492.83461917 227.77009639 504.7656159 227.77299725 C511.20547732 227.77436503 517.64530324 227.7724962 524.08515739 227.76158905 C547.94968103 227.72327769 571.77485091 227.83432069 595.61897278 228.90481567 C596.51744038 228.94477413 597.41590798 228.98473258 598.34160187 229.0259019 C684.63943319 232.97804517 773.16188374 251.65626273 911 346 C911.55204102 346.53012695 912.10408203 347.06025391 912.67285156 347.60644531 C919.65518667 354.3356444 925.98554522 361.3837055 932 369 C932.93140122 370.13201587 933.86511786 371.26212946 934.80078125 372.390625 C977.6547961 424.39048521 1000.060331 490.59234939 1007 557 C1007.10296387 557.90814453 1007.20592773 558.81628906 1007.31201172 559.75195312 C1015.81521131 636.64344512 1002.43934325 713.88401232 954.625 776.08984375 C941.13814254 792.87616455 925.93790523 808.89508215 908.63964844 821.76171875 C907.06023362 822.95451088 905.51739993 824.19527447 903.9765625 825.4375 C885.64110972 840.1435701 863.7878378 853.19989838 842 862 C842.64582031 862.268125 843.29164062 862.53625 843.95703125 862.8125 C846.01521387 863.66843367 848.07238286 864.52680614 850.12890625 865.38671875 C852.9031795 866.5459972 855.68295642 867.69115487 858.46484375 868.83203125 C888.70429491 881.30268094 916.52302403 897.59103514 940.65625 919.84375 C942.19815402 921.2623017 943.76044937 922.65905612 945.34375 924.03125 C957.64416247 934.73420631 968.22452932 946.9937146 978 960 C978.44408203 960.58185059 978.88816406 961.16370117 979.34570312 961.76318359 C1022.6031672 1018.4802543 1050.63708383 1092.1590397 1049 1164 C1048.98211426 1164.86753906 1048.96422852 1165.73507812 1048.94580078 1166.62890625 C1047.62059823 1224.12528548 1038.11490708 1281.82683363 1013 1334 C1012.61763184 1334.81098145 1012.23526367 1335.62196289 1011.84130859 1336.45751953 C1002.61826949 1355.98211376 991.41460831 1374.0806742 978 1391 C977.19691406 1392.01578125 976.39382813 1393.0315625 975.56640625 1394.078125 C967.48236339 1404.1096236 958.72709241 1413.45371487 949.625 1422.5625 C948.75617188 1423.44357422 947.88734375 1424.32464844 946.9921875 1425.23242188 C940.97833384 1431.25961988 934.67438319 1436.71868933 928 1442 C926.98550781 1442.82628906 925.97101563 1443.65257812 924.92578125 1444.50390625 C853.02042504 1501.14684006 761.33091785 1525.63445738 392 1542 C392 1382.61 392 1223.22 392 1059 C320.5012776 1077.44286842 320.5012776 1077.44286842 249.01934814 1095.95031738 C243.49413845 1097.38400715 237.96873857 1098.81696365 232.44335938 1100.25 C224.35601151 1102.34754582 216.26870721 1104.44525944 208.18146706 1106.54322052 C193.43511349 1110.36864146 178.68835962 1114.19251698 163.94140625 1118.015625 C162.2718434 1118.44845637 162.2718434 1118.44845637 160.56855202 1118.89003181 C154.95276062 1120.34590928 149.33696272 1121.80176165 143.72116089 1123.25759888 C132.54584723 1126.15468645 121.37057861 1129.05194775 110.1953125 1131.94921875 C109.08755148 1132.23641218 107.97979046 1132.52360561 106.83846092 1132.81950188 C91.7168119 1136.73988555 76.59527115 1140.66068657 61.47381592 1144.58181763 C53.07910811 1146.75863966 44.68436884 1148.93534032 36.28962326 1151.11201668 C29.70973755 1152.81812866 23.12988152 1154.52435505 16.55007935 1156.23078918 C-16.62955335 1164.83500483 -49.81470326 1173.41759567 -83 1182 C-83.33 1300.8 -83.66 1419.6 -84 1542 C-94.89 1542 -105.78 1542 -117 1542 C-117 1414.62 -117 1287.24 -117 1156 C-92.86281066 1149.10366019 -92.86281066 1149.10366019 -85.12646484 1147.11572266 C-84.2211351 1146.8807608 -83.31580536 1146.64579895 -82.38304138 1146.40371704 C-79.49303119 1145.65446369 -76.60205238 1144.90904075 -73.7109375 1144.1640625 C-71.66302172 1143.63468237 -69.61514033 1143.10516914 -67.56729126 1142.57553101 C-63.32755242 1141.47969561 -59.08730243 1140.3858667 -54.84667969 1139.29345703 C-49.40844918 1137.89229368 -43.97174964 1136.48528441 -38.53542137 1135.07676125 C-34.33089267 1133.98818236 -30.12550348 1132.90295909 -25.9198494 1131.81873703 C-23.91245342 1131.30072904 -21.90534779 1130.78159452 -19.8985405 1130.26131058 C-17.11471918 1129.5400393 -14.32975352 1128.82336896 -11.54443359 1128.10791016 C-10.71859268 1127.8929187 -9.89275177 1127.67792725 -9.04188538 1127.4564209 C-5.95319393 1126.66711263 -3.20190927 1126 0 1126 C0 849.79 0 573.58 0 289 C-3.63 294.61 -7.26 300.22 -11 306 C-14.27319106 310.41880793 -17.54762576 314.73180649 -21 319 C-21.79277344 319.99773437 -22.58554687 320.99546875 -23.40234375 322.0234375 C-35.50719339 336.97830173 -49.39353248 350.7369018 -65 362 C-65.97718994 362.71978027 -65.97718994 362.71978027 -66.97412109 363.45410156 C-105.773648 392.00659741 -153.29321405 412 -202 412 C-202 784.9 -202 1157.8 -202 1542 C-212.89 1542 -223.78 1542 -235 1542 C-235 1158.21 -235 774.42 -235 379 C-225.1 379 -215.2 379 -205 379 C-173.5525623 376.34247005 -143.83130069 369.1167458 -116 354 C-115.00709961 353.47237061 -115.00709961 353.47237061 -113.99414062 352.93408203 C-94.98838947 342.81738435 -78.64722128 329.72414779 -63 315 C-62.34128906 314.38382812 -61.68257812 313.76765625 -61.00390625 313.1328125 C-26.38487697 279.71305675 -1.87027651 226.73402034 -0.7524116 178.56807828 C-0.69747422 174.5213831 -0.68593865 170.47524161 -0.68115234 166.42822266 C-0.6718331 164.6035163 -0.66166153 162.77881412 -0.65071106 160.95411682 C-0.62362181 156.04395426 -0.60832482 151.13382003 -0.59528303 146.22360277 C-0.57955936 141.07598688 -0.55279902 135.9284281 -0.5272522 130.78085327 C-0.48062689 121.05257494 -0.44380457 111.32428567 -0.41057932 101.59595335 C-0.37224255 90.51236997 -0.32286297 79.42884418 -0.27259517 68.3453095 C-0.16951719 45.56357706 -0.08163624 22.78182006 0 0 Z M178 454 C178 500.53 178 547.06 178 595 C187.00971378 590.19481932 195.98322936 585.38511396 204.875 580.375 C207.04945551 579.15360371 209.22393537 577.93225079 211.3984375 576.7109375 C212.4925293 576.09573242 213.58662109 575.48052734 214.71386719 574.84667969 C219.97243118 571.89156988 225.23637673 568.94608566 230.5 566 C236.42659015 562.6818066 242.3529105 559.36313537 248.27755737 556.04147339 C250.03391677 555.05680343 251.79039504 554.07234552 253.546875 553.08789062 C255.76713537 551.8434705 257.98719519 550.59869248 260.20703125 549.35351562 C261.19960937 548.79728516 262.1921875 548.24105469 263.21484375 547.66796875 C264.09261475 547.17578857 264.97038574 546.6836084 265.87475586 546.17651367 C267.23497365 545.42351086 268.60940138 544.69529931 270 544 C270 613.63 270 683.26 270 755 C325.20507129 755.08750964 325.20507129 755.08750964 380.41015625 755.14648438 C387.88167338 755.15235656 395.35319032 755.1584176 402.82470703 755.16479492 C403.76093159 755.16558617 404.69715615 755.16637741 405.66175115 755.16719264 C420.70779064 755.18018321 435.75379517 755.20380244 450.79981405 755.23145839 C466.28113628 755.2596737 481.76244041 755.27621002 497.24378729 755.28226548 C506.76981361 755.28634879 516.29574109 755.29916728 525.82173693 755.3237494 C532.38498192 755.33980657 538.94817703 755.34435611 545.51144016 755.34050413 C549.27841754 755.33861302 553.0452243 755.34116865 556.81217003 755.35761642 C582.36550334 755.46355932 608.16294756 754.45883453 633.25 749.1875 C634.52174072 748.93033203 635.79348145 748.67316406 637.10375977 748.40820312 C647.61635514 746.21816235 657.84329876 743.47331228 668 740 C668.67417969 739.77908691 669.34835937 739.55817383 670.04296875 739.33056641 C688.80888763 733.15053271 705.7595635 723.50883787 721 711 C721.83015625 710.3296875 722.6603125 709.659375 723.515625 708.96875 C742.94818911 692.65132976 754.50808754 669.39073329 760 645 C760.23332031 643.99195313 760.46664062 642.98390625 760.70703125 641.9453125 C768.01678334 604.81808248 757.89415511 567.5206094 738 536 C735.18123055 531.83847129 732.17196239 527.89770739 729 524 C728.54222168 523.43539062 728.08444336 522.87078125 727.61279297 522.2890625 C697.89983755 485.89044375 655.14504365 466.22847266 609.5 458.25 C608.39390381 458.05116211 607.28780762 457.85232422 606.14819336 457.64746094 C580.64401694 453.48919069 554.67433623 453.70757532 528.91595995 453.76786876 C524.18772801 453.77665633 519.45950004 453.7735725 514.73126221 453.77206421 C506.57516334 453.77102485 498.41909692 453.77720089 490.26300621 453.78853989 C478.4712506 453.80492252 466.67951039 453.81001581 454.88774464 453.81251587 C435.74782677 453.81687316 416.60792612 453.83012839 397.46801758 453.84912109 C378.89575282 453.86753115 360.32349277 453.88166243 341.7512207 453.89013672 C340.6028724 453.89066217 339.45452409 453.89118761 338.27137735 453.89172898 C332.5093902 453.89433941 326.74740302 453.89686674 320.98541582 453.89935279 C273.32359523 453.92002396 225.66180658 453.95686024 178 454 Z M230.16015625 603.09765625 C229.35868164 603.56155762 228.55720703 604.02545898 227.73144531 604.50341797 C226.85069336 605.01791504 225.96994141 605.53241211 225.0625 606.0625 C216.66851111 610.91395094 208.23178003 615.67871445 199.75 620.375 C187.84830019 626.97049373 175.96991034 633.60643002 164.1015625 640.26171875 C160.96447836 642.01990823 157.82618127 643.77591344 154.6875 645.53125 C144.6535514 651.14374768 134.62807155 656.77013315 124.625 662.4375 C115.13019929 667.81602438 105.59561735 673.1207389 96.05175781 678.41162109 C87.87966522 682.94583699 79.73307796 687.5229982 71.60424805 692.13427734 C66.46452556 695.04824208 61.31509086 697.94339494 56.15234375 700.81640625 C55.01168457 701.4518335 53.87102539 702.08726074 52.69580078 702.74194336 C50.48850355 703.97046721 48.27990263 705.1966525 46.06982422 706.42016602 C45.07354004 706.97502686 44.07725586 707.5298877 43.05078125 708.1015625 C42.17075439 708.58963379 41.29072754 709.07770508 40.3840332 709.58056641 C39.20393677 710.28318604 39.20393677 710.28318604 38 711 C37.30098076 711.3868526 36.60196152 711.7737052 35.88175988 712.17228061 C33.71401005 713.91697547 33.71401005 713.91697547 33.50320601 716.95664328 C33.50548434 718.79126206 33.50548434 718.79126206 33.50780869 720.66294384 C33.50319331 721.34681997 33.49857793 722.0306961 33.49382269 722.73529574 C33.48317204 725.04398296 33.50122952 727.35157087 33.51898193 729.66020203 C33.5172388 731.32508841 33.51373865 732.98997373 33.50862527 734.65485317 C33.49965064 739.24304883 33.51572287 743.83087338 33.53573751 748.41902173 C33.55296248 753.36175561 33.54716933 758.30446746 33.54412842 763.2472229 C33.54202791 771.81524834 33.55461029 780.38315222 33.57707977 788.95114708 C33.609546 801.33910931 33.62000128 813.72701258 33.62503174 826.11501274 C33.63379285 846.21220656 33.66043053 866.30933554 33.69824219 886.40649414 C33.73494118 905.9325325 33.76326328 925.45855327 33.78027344 944.98461914 C33.78132433 946.18759019 33.78237523 947.39056124 33.78345796 948.62998595 C33.788678 954.66475465 33.79373286 960.69952348 33.79870558 966.73429239 C33.840193 1016.82290641 33.91066361 1066.91145005 34 1117 C36.72961566 1116.35949657 39.45912483 1115.71854515 42.18857479 1115.07733631 C42.95764466 1114.89692296 43.72671453 1114.71650961 44.51908955 1114.53062919 C49.71702018 1113.30903568 54.90202544 1112.0487965 60.07055664 1110.70776367 C60.84050933 1110.50958259 61.61046202 1110.3114015 62.4037466 1110.10721493 C64.9063406 1109.46255838 67.40825988 1108.81532699 69.91015625 1108.16796875 C71.73194179 1107.69794329 73.55376082 1107.22804763 75.37561035 1106.75827026 C80.25916934 1105.49840298 85.14208161 1104.2360468 90.02482986 1102.97304153 C93.07661965 1102.18384866 96.12859646 1101.39538316 99.18063354 1100.60714722 C134.4948792 1091.48615399 169.78872945 1082.28764521 205.07250977 1073.04956055 C205.97713644 1072.81270916 206.88176311 1072.57585777 207.81380272 1072.33182907 C212.04433713 1071.22407875 216.27476963 1070.11594179 220.50500488 1069.00704956 C221.63498225 1068.71096282 221.63498225 1068.71096282 222.78778744 1068.40889454 C224.79322396 1067.88339893 226.79859962 1067.35767109 228.80397034 1066.83192444 C231.19933369 1066.20841292 233.59871951 1065.60032012 236 1065 C236 911.88 236 758.76 236 601 C233.45686974 601 232.35549121 601.81575511 230.16015625 603.09765625 Z M270 974 C270 1001.06 270 1028.12 270 1056 C290.75269441 1050.8495243 311.48742609 1045.65544083 332.171875 1040.23828125 C333.55814842 1039.87523203 333.55814842 1039.87523203 334.97242737 1039.50484848 C340.61824013 1038.02546533 346.26325089 1036.54304013 351.90795898 1035.05944824 C359.50763318 1033.06209379 367.10791958 1031.06708477 374.70896149 1029.07494164 C377.28524642 1028.39912211 379.8610032 1027.72132124 382.43670654 1027.04328918 C396.93083659 1023.24179596 411.45944209 1019.63513948 426 1016 C426 1113.02 426 1210.04 426 1310 C451.41 1310.061875 476.82 1310.12375 503 1310.1875 C510.95738281 1310.21481201 518.91476562 1310.24212402 527.11328125 1310.27026367 C534.38561819 1310.28031062 534.38561819 1310.28031062 541.65795898 1310.28633118 C544.84161951 1310.2890726 548.02512259 1310.30009282 551.20874023 1310.31672668 C626.67496735 1310.6929171 707.73849526 1298.07401375 765 1245 C765.88945313 1244.20916016 765.88945313 1244.20916016 766.796875 1243.40234375 C788.81174707 1222.90754618 800.5485879 1191.16133854 802.1262207 1161.63793945 C803.46648408 1119.68131368 788.46323675 1084.10186608 760.25 1053.4375 C739.65136988 1031.54709611 714.06253526 1015.71481397 687 1003 C686.36562012 1002.7014209 685.73124023 1002.4028418 685.07763672 1002.09521484 C662.58358358 991.6268944 638.38418928 984.02569389 614.0625 979.25 C612.65653564 978.970354 612.65653564 978.970354 611.22216797 978.68505859 C589.94349102 974.74063219 568.832989 973.55557216 547.22820461 973.65180314 C543.49105139 973.66501152 539.75390895 973.66035694 536.01673889 973.65809631 C529.57338603 973.6565389 523.13012576 973.66578532 516.68679619 973.68280983 C507.37134966 973.70740672 498.05594696 973.71502599 488.74047149 973.7187738 C473.61919208 973.72530625 458.49796179 973.74517934 443.37670898 973.77368164 C428.70581301 973.80130595 414.03493048 973.8224983 399.36401367 973.83520508 C398.00283483 973.83638733 398.00283483 973.83638733 396.61415743 973.83759347 C392.06079757 973.84150917 387.50743762 973.84530016 382.9540776 973.84902918 C345.30267474 973.880025 307.65136295 973.93527329 270 974 Z " fill="#4DA7D4" transform="translate(952,0)"/>
<path d="M0 0 C35.05808652 -0.06882506 70.11615925 -0.12160918 105.17429922 -0.15319599 C109.32314946 -0.15694763 113.47199957 -0.16083065 117.62084961 -0.16479492 C118.85967319 -0.16597532 118.85967319 -0.16597532 120.12352351 -0.16717956 C133.45626805 -0.18019599 146.78897336 -0.20382885 160.12169471 -0.23145839 C173.82545405 -0.25961775 187.52919299 -0.2761984 201.23298007 -0.28226548 C209.673464 -0.28636021 218.11383701 -0.29924264 226.55428676 -0.3237494 C232.36009421 -0.33973697 238.16584522 -0.34437129 243.97167303 -0.34050413 C247.31000721 -0.33860255 250.64799568 -0.34299237 253.9863205 -0.35761642 C288.40955382 -0.50089255 322.2948732 3.63043562 348.125 28.625 C370.46143971 51.13113726 374.08012758 82.90610062 374.25 113.0625 C374.10084555 135.91377886 372.30614995 161.11806618 359.5625 180.875 C357.636597 183.87593896 357.636597 183.87593896 358.7265625 186.86328125 C359.92495396 189.81514733 361.28168369 192.52148663 362.8125 195.3125 C379.16004229 227.48798055 378.18175627 274.03732512 368 308 C366.56056022 312.129302 364.90367748 316.06461994 363 320 C362.33871094 321.38251953 362.33871094 321.38251953 361.6640625 322.79296875 C351.10424804 343.4750363 332.64885853 356.74334054 311 364 C287.11193669 371.34214327 262.47640684 371.1512376 237.74389648 371.11352539 C235.13058473 371.11324282 232.51727289 371.11340262 229.90396118 371.1139679 C224.31119236 371.11448844 218.71843534 371.11139109 213.12566948 371.10573006 C205.03979198 371.09755087 196.95392009 371.09499331 188.8680389 371.09374207 C175.74446086 371.09156156 162.62088909 371.08492879 149.49731445 371.07543945 C136.7603356 371.06623932 124.02335846 371.05917125 111.28637695 371.05493164 C110.49928942 371.05466892 109.7122019 371.05440619 108.90126323 371.05413551 C104.95208514 371.05283033 101.00290704 371.05156666 97.05372894 371.05032361 C64.36914806 371.0399822 31.68457488 371.02239134 -1 371 C-1.02292826 326.91394303 -1.04052963 282.82788669 -1.05106533 238.74182492 C-1.05231592 233.52775306 -1.05361025 228.31368121 -1.05493164 223.09960938 C-1.05519395 222.06165565 -1.05545626 221.02370192 -1.05572652 219.95429505 C-1.06006849 203.18528624 -1.0679479 186.41628089 -1.0771528 169.64727412 C-1.08653037 152.41899904 -1.09206428 135.19072576 -1.09408849 117.96244824 C-1.09545522 107.3462457 -1.09975949 96.73005294 -1.10791647 86.11385341 C-1.11323462 78.81715893 -1.11479286 71.52046944 -1.11350138 64.22377317 C-1.11286586 60.0246885 -1.11378513 55.82562081 -1.11920547 51.62653923 C-1.14039772 34.39370505 -1.02710753 17.20969205 0 0 Z M83 80 C83 101.45 83 122.9 83 145 C106.81791579 145.06776919 130.63575329 145.12301223 154.45374107 145.15543652 C165.51330395 145.17089307 176.57280258 145.19195947 187.63232422 145.22631836 C197.27390036 145.25625775 206.91542996 145.27558381 216.5570513 145.28226548 C221.66030936 145.28617004 226.76343431 145.29532111 231.86664963 145.31719017 C236.67483496 145.33762702 241.48283295 145.34381927 246.29105759 145.33932304 C248.05100524 145.34014503 249.81095949 145.34606763 251.57086945 145.35761642 C263.16865633 145.42995816 273.89373164 145.4033104 283.30859375 137.73828125 C290.0550603 130.80484565 290.18027784 121.82353254 290.1875 112.6875 C290.19974609 111.88376953 290.21199219 111.08003906 290.22460938 110.25195312 C290.24481219 101.88125365 289.30065745 94.42845057 283.91015625 87.79296875 C276.96716901 81.27593165 268.58154325 79.84166942 259.41337585 79.87974548 C258.6577301 79.87889106 257.90208434 79.87803663 257.12354022 79.87715632 C254.5962519 79.87551166 252.06903023 79.88100628 249.54174805 79.88647461 C247.72822572 79.88675673 245.91470329 79.88659827 244.10118103 79.8860321 C239.18013645 79.88574509 234.25911622 79.89162646 229.33807731 79.89860606 C224.19444639 79.90485543 219.05081492 79.90544465 213.90718079 79.90663147 C204.16795091 79.90974011 194.42873224 79.91794722 184.68950731 79.92798096 C173.60133298 79.93915659 162.51315812 79.94465621 151.42497957 79.94967639 C128.61664539 79.9601302 105.8083266 79.9784699 83 80 Z M83 225 C83 246.45 83 267.9 83 290 C107.09595409 290.06775261 131.19183091 290.12300259 155.2878561 290.15543652 C166.47636262 290.17089725 177.66480569 290.19197165 188.85327148 290.22631836 C198.60653939 290.25624495 208.35976134 290.27558078 218.11307389 290.28226548 C223.27610308 290.2861722 228.43900082 290.29533711 233.60198784 290.31719017 C238.46516148 290.33760676 243.32814995 290.34382333 248.19136238 290.33932304 C249.9726932 290.34014593 251.75403044 290.34608067 253.5353241 290.35761642 C265.31268871 290.43012303 275.28625208 290.44414565 284.33984375 281.89453125 C290.28083319 275.11481389 290.18077404 266.18041548 290.1875 257.625 C290.19974609 256.81289062 290.21199219 256.00078125 290.22460938 255.1640625 C290.24370911 247.21857412 289.0499872 239.41020048 284 233 C276.1537386 225.78373039 266.59093704 224.8358565 256.28675842 224.87974548 C255.54165447 224.87889106 254.79655052 224.87803663 254.02886766 224.87715632 C251.54924941 224.87551819 249.06969984 224.88099541 246.59008789 224.88647461 C244.80582684 224.88675687 243.02156567 224.88659799 241.23730469 224.8860321 C236.40521846 224.88574564 231.57315715 224.89161806 226.74107671 224.89860606 C221.68687775 224.90486464 216.63267819 224.90544538 211.57847595 224.90663147 C202.01285081 224.9097374 192.44723712 224.91794084 182.88161701 224.92798096 C171.98928137 224.93916501 161.09694518 224.94465833 150.20460522 224.94967639 C127.80306234 224.96012407 105.40153515 224.97846038 83 225 Z " fill="#E96021" transform="translate(1,1689)"/>
<path d="M0 0 C1.19882813 -0.020625 2.39765625 -0.04125 3.6328125 -0.0625 C14.55526233 -0.1098859 24.43566231 1.73928087 34.1875 6.75 C34.86006836 7.09474365 35.53263672 7.4394873 36.22558594 7.79467773 C55.70000078 18.22871412 67.35856155 36.12952685 77.25 55.25 C78.37745859 57.41023223 79.50507232 59.5703835 80.6328125 61.73046875 C83.0559032 66.38404296 85.46738782 71.04341688 87.87109375 75.70703125 C90.65749294 81.11107478 93.47198891 86.49923902 96.3125 91.875 C100.15464138 99.15137329 103.95806595 106.44734138 107.75 113.75 C111.58510995 121.13514784 115.43059181 128.51433514 119.3125 135.875 C125.51254041 147.63118209 131.64869289 159.42062235 137.79101562 171.20703125 C143.32862893 181.83193098 148.87224917 192.45332115 154.46362305 203.05004883 C157.21700363 208.27265718 159.94369845 213.50860557 162.66113281 218.75 C164.67892448 222.63324846 166.71144249 226.50865757 168.74755859 230.38232422 C169.74562158 232.28730436 170.73818284 234.19517756 171.72509766 236.10595703 C173.13400873 238.82940916 174.56439214 241.54054648 176 244.25 C176.41113037 245.05622803 176.82226074 245.86245605 177.24584961 246.69311523 C181.22798275 254.11026012 187.18772437 260.33385775 195.25 263.25 C199.50518737 263.77256687 201.47482129 263.73869962 205.125 261.4375 C208.09179464 258.3834467 208.37468354 255.9674528 208.3886652 251.88280964 C208.39413964 250.98508723 208.39961409 250.08736481 208.40525442 249.16243869 C208.40623253 248.17509445 208.40721064 247.18775021 208.40821838 246.17048645 C208.41562535 244.59855743 208.41562535 244.59855743 208.42318195 242.99487227 C208.43859916 239.4663911 208.44692901 235.93792819 208.45532227 232.40942383 C208.46489747 229.88684426 208.47490733 227.36426631 208.48532104 224.84169006 C208.50679517 219.40201672 208.52523193 213.96234643 208.54092598 208.52265358 C208.56362225 200.65773797 208.59176542 192.79284931 208.62124526 184.92795654 C208.66892414 172.16821013 208.71218752 159.40845271 208.75268555 146.64868164 C208.79203896 134.25251407 208.83346482 121.85635628 208.87768555 109.46020508 C208.88177196 108.31438103 208.88177196 108.31438103 208.88594092 107.14540903 C208.89962037 103.31329857 208.91334065 99.48118825 208.92708123 95.64907801 C209.04105066 63.84940454 209.1470476 32.04971152 209.25 0.25 C236.97 0.25 264.69 0.25 293.25 0.25 C293.29416333 34.08522683 293.33106372 67.92042549 293.35213066 101.75567251 C293.35463181 105.75817625 293.35722048 109.76067994 293.35986328 113.76318359 C293.36065021 114.95832835 293.36065021 114.95832835 293.36145304 116.17761745 C293.3701349 129.04678753 293.38589254 141.91593959 293.40430559 154.78509901 C293.42306659 168.00858992 293.43412978 181.23207144 293.43817699 194.45557511 C293.44090924 202.60276622 293.44951111 210.74990635 293.46583293 218.89708175 C293.47647651 224.4982198 293.47958411 230.09933184 293.47700275 235.70047925 C293.47573282 238.92292254 293.47868196 242.14525974 293.48841095 245.36769104 C293.53836244 262.7780689 293.26056086 279.95227135 289 296.9375 C288.78456543 297.81269287 288.56913086 298.68788574 288.34716797 299.58959961 C282.25079814 323.40204632 269.85341761 344.45254097 248.46582031 357.32373047 C225.46843825 370.62944471 194.83435109 375.22584741 169 368.625 C131.43897747 356.62096187 116.39672674 319.88882785 99.74777222 287.61860657 C97.5517751 283.35695933 95.36148174 279.09239917 93.17282104 274.82698059 C89.44215768 267.55655496 85.67488931 260.30738182 81.85424805 253.08374023 C78.45567799 246.6549287 75.10069751 240.20387559 71.75 233.75 C67.52005281 225.60438989 63.27056534 217.46976881 58.98828125 209.3515625 C55.20568559 202.17683266 51.45681241 194.98467518 47.70849609 187.79199219 C44.19360195 181.05032842 40.65877587 174.31949782 37.109375 167.59594727 C34.18881341 162.05557239 31.30526735 156.49671026 28.43017578 150.93261719 C26.23286147 146.68869074 24.02097227 142.45251718 21.80322266 138.21923828 C20.80638338 136.31361752 19.8135157 134.40591088 18.82568359 132.49560547 C11.34060317 117.68916614 11.34060317 117.68916614 -1.875 108.25 C-5.46721149 107.11598814 -8.11770369 107.01171717 -11.75 108.25 C-14.56005071 110.52841949 -15.59898818 111.79696453 -16.75 115.25 C-16.84425208 116.70341088 -16.88367978 118.16073515 -16.8886652 119.61719036 C-16.89413964 120.51491277 -16.89961409 121.41263519 -16.90525442 122.33756131 C-16.90623253 123.32490555 -16.90721064 124.31224979 -16.90821838 125.32951355 C-16.91315636 126.37746623 -16.91809434 127.42541891 -16.92318195 128.50512773 C-16.93859916 132.0336089 -16.94692901 135.56207181 -16.95532227 139.09057617 C-16.96489747 141.61315574 -16.97490733 144.13573369 -16.98532104 146.65830994 C-17.00679517 152.09798328 -17.02523193 157.53765357 -17.04092598 162.97734642 C-17.06362225 170.84226203 -17.09176542 178.70715069 -17.12124526 186.57204346 C-17.16892414 199.33178987 -17.21218752 212.09154729 -17.25268555 224.85131836 C-17.29203896 237.24748593 -17.33346482 249.64364372 -17.37768555 262.03979492 C-17.38040982 262.80367762 -17.38313409 263.56756032 -17.38594092 264.35459097 C-17.39962037 268.18670143 -17.41334065 272.01881175 -17.42708123 275.85092199 C-17.54105066 307.65059546 -17.6470476 339.45028848 -17.75 371.25 C-45.47 371.25 -73.19 371.25 -101.75 371.25 C-101.79417755 337.70360487 -101.83107241 304.15723821 -101.85213066 270.61082269 C-101.85463176 266.64093904 -101.85722043 262.67105544 -101.85986328 258.70117188 C-101.8603879 257.91091455 -101.86091252 257.12065723 -101.86145304 256.30645272 C-101.87013083 243.54856462 -101.88588618 230.79069473 -101.90430559 218.03281739 C-101.923078 204.92005806 -101.93413216 191.80730819 -101.93817699 178.69453597 C-101.9409069 170.61798221 -101.94949578 162.54147996 -101.96583293 154.46494207 C-101.97775938 148.2482644 -101.97889298 142.03162514 -101.97621536 135.81493759 C-101.97676125 133.28194489 -101.98068092 130.74895005 -101.98841095 128.21596909 C-102.04074695 110.16646117 -101.98741839 91.90406992 -97.4375 74.3125 C-97.2194873 73.44044922 -97.00147461 72.56839844 -96.77685547 71.66992188 C-92.61850282 55.53874224 -85.90028065 40.76007097 -74.75 28.25 C-74.07324219 27.47914062 -73.39648438 26.70828125 -72.69921875 25.9140625 C-54.03751843 5.92182047 -26.21675799 0.11132381 0 0 Z " fill="#E96021" transform="translate(2071.75,1688.75)"/>
<path d="M0 0 C27.72 0 55.44 0 84 0 C84 47.85 84 95.7 84 145 C152.31 145 220.62 145 291 145 C291 97.15 291 49.3 291 0 C318.39 0 345.78 0 374 0 C374 122.43 374 244.86 374 371 C346.61 371 319.22 371 291 371 C291 322.82 291 274.64 291 225 C222.69 225 154.38 225 84 225 C84 273.18 84 321.36 84 371 C56.28 371 28.56 371 0 371 C0 248.57 0 126.14 0 0 Z " fill="#E96021" transform="translate(406,1689)"/>
<path d="M0 0 C27.72 0 55.44 0 84 0 C84.01458252 7.39857422 84.02916504 14.79714844 84.04418945 22.41992188 C84.09303231 46.14064754 84.15646492 69.86131142 84.22898628 93.58197549 C84.24025333 97.27160963 84.25139196 100.96124414 84.26245117 104.65087891 C84.26465486 105.38536379 84.26685854 106.11984867 84.269129 106.87659067 C84.30442191 118.74154651 84.32933111 130.6065023 84.35034702 142.47149104 C84.37217308 154.66218382 84.40528752 166.85280897 84.44870156 179.04344416 C84.4751016 186.55494627 84.4928825 194.06636426 84.49934604 201.57791042 C84.50526461 207.35504855 84.52695149 213.13204797 84.55427551 218.90912056 C84.56301645 221.26639543 84.56678657 223.62369524 84.56500816 225.98098564 C84.44158726 255.71392012 84.44158726 255.71392012 98.6328125 280.8671875 C101.83288922 283.75042494 104.93425219 285.61974613 109 287 C109.91513367 287.33883209 110.83026733 287.67766418 111.77313232 288.02676392 C117.62269319 289.67149548 123.72174623 289.29474543 129.74707031 289.29052734 C131.13910785 289.29651881 132.53114208 289.30332577 133.923172 289.31088257 C137.68992278 289.32848878 141.45658259 289.33323572 145.22337055 289.33451414 C147.58153786 289.33593956 149.93968232 289.34021659 152.29784393 289.34550858 C160.53858396 289.36399236 168.77925946 289.37218142 177.02001953 289.37060547 C184.6789106 289.36940511 192.33751939 289.39049081 199.99633908 289.4220928 C206.59024152 289.44832263 213.18405216 289.45896994 219.77800632 289.45769465 C223.70807507 289.4571869 227.63789286 289.46276533 231.56790924 289.48405075 C235.26825017 289.50354633 238.9681037 289.5034814 242.66846275 289.48901749 C244.6570563 289.48596022 246.6456505 289.50252701 248.63417053 289.51989746 C259.52278844 289.44429561 269.2884608 287.14071241 277.515625 279.61328125 C287.02839447 269.69213531 289.30510157 255.50093646 289.2784729 242.31285095 C289.2871615 240.7516081 289.2871615 240.7516081 289.29602563 239.15882498 C289.31295624 235.69040545 289.31589618 232.22211954 289.31884766 228.75366211 C289.32815061 226.25975216 289.33831983 223.76584532 289.34928894 221.27194214 C289.37091873 215.91258039 289.38654986 210.55325313 289.39665604 205.19386101 C289.4112781 197.44521037 289.43682468 189.69662559 289.46498732 181.94801373 C289.5103914 169.37462104 289.54703252 156.80121883 289.578125 144.2277832 C289.60833674 132.0181308 289.64269903 119.80850164 289.68261719 107.59887695 C289.68507874 106.84553158 289.68754028 106.09218621 289.69007643 105.3160122 C289.70245154 101.53647765 289.71490797 97.75694339 289.72740483 93.97740924 C289.830877 62.65163373 289.91849045 31.32584227 290 0 C317.72 0 345.44 0 374 0 C374.06622676 35.635768 374.12158439 71.27147762 374.15319599 106.90728962 C374.15694778 111.12138004 374.16083078 115.33547032 374.16479492 119.54956055 C374.16558185 120.38845464 374.16636878 121.22734872 374.16717956 122.09166384 C374.18020758 135.64697214 374.20384697 149.20224198 374.23145839 162.75752752 C374.25958524 176.68275003 374.2761916 190.60795249 374.28226548 204.53320223 C374.28636688 213.11496035 374.29928629 221.69660976 374.3237494 230.27833439 C374.33969663 236.17568738 374.3443802 242.07298476 374.34050413 247.97035771 C374.33859642 251.36490168 374.34304728 254.75910545 374.35761642 258.15364075 C374.47615852 287.21411555 371.16905253 314.36668353 351 337 C350.33484375 337.75925781 349.6696875 338.51851562 348.984375 339.30078125 C332.3294264 357.15858725 307.4937111 365.08111909 284 368.75 C283.2668457 368.86569336 282.53369141 368.98138672 281.77832031 369.10058594 C263.76386 371.64098776 245.41117944 371.16392667 227.26804948 371.16725707 C225.05831742 371.16797647 222.84859127 371.17012719 220.6388607 371.17275429 C212.88350415 371.18195551 205.12816457 371.18609571 197.37280273 371.18530273 C190.21785623 371.18470309 183.06298538 371.19524622 175.90805799 371.2110464 C169.70186324 371.22424831 163.49569284 371.22948141 157.2894842 371.22884732 C153.61078152 371.22859606 149.93214632 371.23123641 146.25345802 371.24202538 C108.87434981 371.34387333 68.95177679 370.58829851 39 345 C38.20078125 344.35675781 37.4015625 343.71351563 36.578125 343.05078125 C12.42941147 322.76436197 3.50476768 289.96568389 0.6428653 259.7472232 C-0.33858407 248.36653809 -0.26409248 236.98892391 -0.22705078 225.57495117 C-0.22648516 223.09897873 -0.22680617 220.62300594 -0.22793579 218.14703369 C-0.22838735 212.86316696 -0.22281287 207.57934521 -0.21146011 202.29549217 C-0.19505774 194.65636388 -0.18998223 187.01725933 -0.18748413 179.37811533 C-0.18312985 166.97773052 -0.16988301 154.57737234 -0.15087891 142.17700195 C-0.13246091 130.14640433 -0.11833356 118.11581399 -0.10986328 106.08520508 C-0.10933783 105.34098638 -0.10881239 104.59676768 -0.10827102 103.82999691 C-0.10566054 100.09567839 -0.10313322 96.36135982 -0.10064721 92.62704122 C-0.07998547 61.75133751 -0.04315445 30.87568281 0 0 Z " fill="#E96021" transform="translate(818,1689)"/>
<path d="M0 0 C1.33512383 -0.0099852 1.33512383 -0.0099852 2.69721985 -0.02017212 C4.5721329 -0.03024485 6.44708141 -0.03499082 8.32202148 -0.03466797 C11.15084831 -0.03902411 13.97809073 -0.07535381 16.80664062 -0.11328125 C35.29957493 -0.22879149 49.27132434 3.85224641 63.046875 16.80859375 C85.16771766 39.70809007 94.00307111 75.54871643 105.23779297 104.61352539 C110.08943346 117.1638246 114.97242081 129.70043341 119.92578125 142.2109375 C121.14209311 145.28378848 122.35827802 148.35668964 123.57421875 151.4296875 C124.0385305 152.60308434 124.0385305 152.60308434 124.51222229 153.80018616 C128.71477736 164.42804751 132.88094064 175.07020974 137.05078125 185.7109375 C138.76032626 190.07295211 140.46996216 194.43493107 142.1796875 198.796875 C142.61234421 199.90070526 143.04500092 201.00453552 143.49076843 202.14181519 C148.9453371 216.05580279 154.41238727 229.96488672 159.87884521 243.87420654 C164.81004304 256.42183935 169.73883352 268.97039642 174.65625 281.5234375 C175.07478241 282.59162216 175.49331482 283.65980682 175.92453003 284.76036072 C179.25029029 293.24858468 179.25029029 293.24858468 180.89978027 297.46389771 C185.54779563 309.34199073 190.22644638 321.20686477 194.9609375 333.05078125 C195.85466403 335.29097954 196.74830144 337.53121338 197.6418457 339.77148438 C199.33729255 344.02194213 201.04154311 348.26872467 202.75073242 352.51367188 C203.51254933 354.42173837 204.27404234 356.32993423 205.03515625 358.23828125 C205.56321617 359.53909889 205.56321617 359.53909889 206.10194397 360.86619568 C206.41860519 361.6643721 206.73526642 362.46254852 207.06152344 363.28491211 C207.47733673 364.31992104 207.47733673 364.31992104 207.90155029 365.37583923 C208.48828125 367.3359375 208.48828125 367.3359375 208.48828125 371.3359375 C177.46828125 371.3359375 146.44828125 371.3359375 114.48828125 371.3359375 C98.78596166 332.08013853 98.78596166 332.08013853 93.46533203 318.67480469 C92.62716979 316.56489052 91.78758764 314.45553999 90.94677734 312.34667969 C89.70217534 309.22457931 88.46192288 306.10078381 87.22265625 302.9765625 C86.65572052 301.5583017 86.65572052 301.5583017 86.07733154 300.11138916 C85.73566956 299.24737488 85.39400757 298.3833606 85.04199219 297.49316406 C84.58998444 296.35648285 84.58998444 296.35648285 84.12884521 295.19683838 C83.48828125 293.3359375 83.48828125 293.3359375 83.48828125 291.3359375 C12.20828125 291.8309375 12.20828125 291.8309375 -60.51171875 292.3359375 C-70.41171875 317.5809375 -70.41171875 317.5809375 -80.51171875 343.3359375 C-84.14171875 352.5759375 -87.77171875 361.8159375 -91.51171875 371.3359375 C-122.86171875 371.3359375 -154.21171875 371.3359375 -186.51171875 371.3359375 C-183.02290879 361.45097594 -179.55706145 351.64829727 -175.66918945 341.92700195 C-173.73572282 337.08311734 -171.81280599 332.23509152 -169.890625 327.38671875 C-169.54055893 326.50463242 -169.19049286 325.62254608 -168.82981873 324.71372986 C-164.46276817 313.70447607 -160.14483884 302.67597427 -155.82421875 291.6484375 C-154.97106327 289.4717475 -154.11787291 287.29507116 -153.26464844 285.1184082 C-151.5373979 280.71182956 -149.81035851 276.30516826 -148.08349609 271.8984375 C-143.93592892 261.3145715 -139.78653279 250.7314227 -135.63671875 240.1484375 C-135.22789459 239.10579742 -134.81907043 238.06315735 -134.39785767 236.98892212 C-127.31263924 218.91990348 -120.21695168 200.85500785 -113.11877441 182.79107666 C-106.9486335 167.08853632 -100.78253872 151.38441986 -94.62365723 135.67745972 C-93.3950389 132.54465273 -92.16584304 129.41207288 -90.93652344 126.27954102 C-87.10235019 116.50732343 -83.27419851 106.73284664 -79.46377563 96.95133972 C-77.66487175 92.33460853 -75.8628604 87.71909305 -74.06060791 83.10366821 C-73.21120005 80.92586565 -72.36327849 78.74748264 -71.51702881 76.56845093 C-48.43798095 17.1463404 -48.43798095 17.1463404 -21.00390625 3.74609375 C-13.9156187 0.88382104 -7.56470839 0.02012411 0 0 Z M10.48828125 109.3359375 C5.08359347 122.96141065 -0.31193753 136.59048432 -5.69970703 150.22265625 C-7.58965796 155.00456114 -9.48143815 159.78573674 -11.37451172 164.56640625 C-13.70693152 170.45781855 -16.03385418 176.35137625 -18.35705566 182.24642944 C-19.25182243 184.51441296 -20.14838872 186.78168735 -21.04675293 189.04824829 C-22.30417838 192.22171034 -23.55520406 195.39762293 -24.8046875 198.57421875 C-25.18189438 199.52204224 -25.55910126 200.46986572 -25.94773865 201.44641113 C-26.28749222 202.31399048 -26.62724579 203.18156982 -26.97729492 204.07543945 C-27.27528488 204.83000931 -27.57327484 205.58457916 -27.8802948 206.36201477 C-28.66405599 208.46675671 -28.66405599 208.46675671 -28.51171875 211.3359375 C-2.11171875 211.3359375 24.28828125 211.3359375 51.48828125 211.3359375 C50.81603127 207.97468762 50.2553316 205.43728433 49.03979492 202.35498047 C48.74333572 201.59719299 48.44687653 200.83940552 48.14143372 200.05865479 C47.81632309 199.24007996 47.49121246 198.42150513 47.15625 197.578125 C46.81200485 196.70154236 46.4677597 195.82495972 46.11308289 194.92181396 C44.97117266 192.01665419 43.82346091 189.11382235 42.67578125 186.2109375 C41.878002 184.18424572 41.08064589 182.15738733 40.28369141 180.13037109 C38.58637433 175.81467802 36.88690218 171.49984205 35.18603516 167.18554688 C31.01306386 156.59630093 26.86397111 145.99768359 22.71133423 135.40045166 C20.55220863 129.89151159 18.39138556 124.38323765 16.23046875 118.875 C15.85008957 117.90536316 15.46971039 116.93572632 15.07780457 115.93670654 C14.214653 113.73644122 13.35148007 111.53618428 12.48828125 109.3359375 C11.82828125 109.3359375 11.16828125 109.3359375 10.48828125 109.3359375 Z " fill="#E96021" transform="translate(2554.51171875,1688.6640625)"/>
<path d="M0 0 C2.72993551 0.00850674 5.45777016 -0.02032373 8.1875 -0.05200195 C26.0903068 -0.12479083 40.66831271 3.84827391 54.0546875 16.50854492 C69.81909382 33.1563016 77.37294516 55.51133566 85.4921875 76.50854492 C86.36131556 78.74252717 87.23112397 80.97624483 88.1015625 83.2097168 C89.92956247 87.90110249 91.75505761 92.59345184 93.57910156 97.28637695 C97.68739283 107.8468315 101.83799852 118.39065045 105.98632812 128.9354248 C108.29985667 134.81721117 110.61085656 140.6999907 112.921875 146.58276367 C113.37705505 147.74135895 113.83223511 148.89995422 114.3012085 150.09365845 C121.50944405 168.44284342 128.70388927 186.79743924 135.89941406 205.15161133 C138.38567914 211.49339784 140.87245329 217.83498464 143.359375 224.17651367 C143.77227783 225.22939575 144.18518066 226.28227783 144.6105957 227.36706543 C145.86278468 230.56006184 147.11498402 233.75305419 148.3671875 236.94604492 C157.63888607 260.58792752 157.63888607 260.58792752 162.06555176 271.87947083 C163.30044977 275.02938199 164.53547371 278.17924376 165.77050781 281.32910156 C167.40839419 285.50647092 169.04569169 289.68407044 170.68261719 293.86181641 C175.01975839 304.9282018 179.36824783 315.99001013 183.73195267 327.04594231 C185.27555285 330.95784752 186.81741922 334.87043653 188.3592968 338.78302097 C189.60756368 341.94996432 190.85718673 345.11635958 192.10980225 348.28158569 C193.49547843 351.78444672 194.87706857 355.28889365 196.2578125 358.79370117 C196.67549896 359.8462912 197.09318542 360.89888123 197.52352905 361.98336792 C197.90022736 362.94179596 198.27692566 363.900224 198.66503906 364.88769531 C198.9955426 365.72426163 199.32604614 366.56082794 199.66656494 367.42274475 C200.3671875 369.44604492 200.3671875 369.44604492 200.3671875 371.44604492 C169.0171875 371.44604492 137.6671875 371.44604492 105.3671875 371.44604492 C96.6171875 348.82104492 96.6171875 348.82104492 93.94238281 341.89672852 C87.53838206 325.36071353 80.95421503 308.91361374 74.3671875 292.44604492 C26.8471875 292.11604492 -20.6728125 291.78604492 -69.6328125 291.44604492 C-70.6228125 294.74604492 -71.6128125 298.04604492 -72.6328125 301.44604492 C-73.80692266 304.61092926 -75.00426067 307.74730839 -76.2578125 310.87963867 C-76.77831177 312.19400658 -76.77831177 312.19400658 -77.30932617 313.53492737 C-78.0436354 315.38701 -78.77991242 317.23831354 -79.51806641 319.08886719 C-80.60600485 321.81633792 -81.68837151 324.54595924 -82.76953125 327.27612305 C-88.63227266 342.03823225 -94.63944792 356.73505914 -100.6328125 371.44604492 C-131.6528125 371.44604492 -162.6728125 371.44604492 -194.6328125 371.44604492 C-193.78218812 366.34229866 -192.50675008 362.14829639 -190.58984375 357.42260742 C-190.27421478 356.63014618 -189.95858582 355.83768494 -189.63339233 355.02120972 C-188.94214195 353.28751604 -188.2481784 351.55490229 -187.55184937 349.82324219 C-186.01990999 346.01297658 -184.50147896 342.19736883 -182.98194885 338.38214111 C-182.16039025 336.31981908 -181.3381377 334.25777337 -180.51524353 332.19598389 C-176.03842219 320.97510153 -171.62147757 309.7308683 -167.20877075 298.48464966 C-165.80831768 294.91547509 -164.4070646 291.34661551 -163.00561523 287.77783203 C-153.53951411 263.67057134 -144.08556478 239.55854222 -134.6328125 215.44604492 C-131.34138204 207.05011897 -128.0497939 198.65425487 -124.7578125 190.25854492 C-124.14362457 188.6921376 -124.14362457 188.6921376 -123.51702881 187.09408569 C-118.74418702 174.92220347 -113.96830089 162.75152213 -109.1875 150.58276367 C-108.73050217 149.41953079 -108.27350433 148.25629791 -107.80265808 147.05781555 C-105.49488857 141.18409477 -103.18648152 135.31062542 -100.87719727 129.4375 C-96.25285925 117.6745336 -91.63867246 105.90773036 -87.04296875 94.13354492 C-85.692159 90.67627933 -84.34111209 87.21910652 -82.98999023 83.76196289 C-82.14179614 81.58957515 -81.29474808 79.41673951 -80.44897461 77.2434082 C-56.47350468 15.63647457 -56.47350468 15.63647457 -31.26220703 4.52636719 C-20.89215983 0.2656932 -11.06473196 -0.05250992 0 0 Z M2.3671875 108.44604492 C-7.07301158 131.204381 -16.02278456 154.15665283 -24.98144531 177.10771179 C-27.06067834 182.43399103 -29.14881407 187.75649367 -31.25292969 193.07299805 C-31.88205765 194.66715546 -31.88205765 194.66715546 -32.52389526 196.29351807 C-33.32495687 198.32256044 -34.12865653 200.35056383 -34.93533325 202.37738037 C-35.29037933 203.2782135 -35.64542542 204.17904663 -36.01123047 205.10717773 C-36.32542938 205.89956848 -36.6396283 206.69195923 -36.96334839 207.50836182 C-37.74166459 209.41942539 -37.74166459 209.41942539 -37.6328125 211.44604492 C-10.9028125 211.44604492 15.8271875 211.44604492 43.3671875 211.44604492 C36.28912464 192.50904382 36.28912464 192.50904382 28.9921875 173.66088867 C28.5379541 172.50641739 28.0837207 171.35194611 27.61572266 170.16249084 C26.20134572 166.56879621 24.78438072 162.97612973 23.3671875 159.38354492 C22.42429544 156.98973707 21.48158667 154.59585702 20.5390625 152.2019043 C19.15177346 148.67828773 17.76437923 145.15471333 16.3762207 141.63143921 C12.0214907 130.576829 7.69056276 119.51295012 3.3671875 108.44604492 C3.0371875 108.44604492 2.7071875 108.44604492 2.3671875 108.44604492 Z " fill="#E96021" transform="translate(1748.6328125,1688.553955078125)"/>
<path d="M0 0 C31.02 0 62.04 0 94 0 C96.63717548 5.27435096 99.01751834 10.32184545 101.07421875 15.80078125 C101.35479126 16.53699203 101.63536377 17.27320282 101.92443848 18.03172302 C102.53057038 19.62261252 103.13500106 21.21415105 103.73788452 22.80627441 C105.3983462 27.18856561 107.07422369 31.56495296 108.75 35.94140625 C109.27426826 37.31128189 109.27426826 37.31128189 109.80912781 38.70883179 C113.53146056 48.41717522 117.35300801 58.08552424 121.1875 67.75 C122.62274365 71.36965385 124.05760387 74.98945952 125.4921875 78.609375 C125.85649872 79.52857224 126.22080994 80.44776947 126.59616089 81.39482117 C131.02864758 92.58592726 135.42089057 103.79280426 139.8125 115 C140.2298642 116.06496704 140.64722839 117.12993408 141.07723999 118.22717285 C143.20239849 123.6500087 145.32714496 129.07300585 147.45166016 134.49609375 C151.21749714 144.1082392 154.98717418 153.71887864 158.7565918 163.32962036 C159.99472665 166.48655429 161.2327381 169.64353658 162.47070312 172.80053711 C166.34074135 182.66970229 170.21117259 192.53871292 174.08279419 202.40725708 C175.89134833 207.01722065 177.69970935 211.62725997 179.50805664 216.23730469 C180.36180182 218.41361187 181.21563932 220.58988283 182.06958008 222.76611328 C187.06730211 235.50266254 192.05013448 248.24476967 197 261 C201.35688854 250.71229532 205.4634106 240.32984686 209.5625 229.9375 C210.3102835 228.04385633 211.05808675 226.15022047 211.8059082 224.2565918 C218.72449044 206.72888011 225.60278259 189.18537532 232.47758484 171.64045715 C232.90134903 170.55898911 233.32511322 169.47752106 233.76171875 168.36328125 C234.18818192 167.27492477 234.61464508 166.1865683 235.05403137 165.06523132 C240.49054193 151.19333351 245.94136686 137.32705953 251.39111328 123.46035767 C256.32212745 110.91318255 261.25081216 98.36511331 266.16796875 85.8125 C277.38337998 57.18350248 288.66951376 28.58372666 300 0 C331.35 0 362.7 0 395 0 C388.03003018 18.5865862 388.03003018 18.5865862 385.73046875 24.58203125 C385.31385483 25.66936806 385.31385483 25.66936806 384.88882446 26.77867126 C383.9895151 29.12371741 383.0887769 31.46820937 382.1875 33.8125 C381.86808441 34.64358276 381.54866882 35.47466553 381.21957397 36.33093262 C375.46198428 51.29999558 369.58992032 66.2222053 363.67919922 81.13134766 C358.19271641 94.97135231 352.74342023 108.82560131 347.3125 122.6875 C345.62114438 127.00392609 343.92972767 131.32032824 342.23828125 135.63671875 C341.81186844 136.72493927 341.38545563 137.81315979 340.94612122 138.93435669 C335.97216454 151.62608014 330.98586351 164.31295059 326 177 C319.36547721 193.88351301 312.73466669 210.76847105 306.11248779 227.65682983 C304.882053 230.79451441 303.65126351 233.93205967 302.42041016 237.06958008 C298.60868258 246.78728832 294.80066195 256.50641184 291.00363159 266.22987366 C289.22337572 270.78801174 287.44113975 275.34537447 285.65875244 279.90267944 C284.82358144 282.0396856 283.98934354 284.17705674 283.15618896 286.31484985 C278.76024749 297.59385355 274.29166626 308.83951612 269.66796875 320.02734375 C269.26125946 321.01840622 268.85455017 322.00946869 268.43551636 323.03056335 C263.48243875 334.92748584 257.14777801 344.83650416 248 354 C247.29101562 354.72058594 246.58203125 355.44117188 245.8515625 356.18359375 C232.02042091 369.39058635 215.57594248 371.22498949 197.3125 371.3125 C196.19673584 371.31813965 195.08097168 371.3237793 193.93139648 371.32958984 C174.81798814 371.1636431 159.66841908 366.77770007 145.44140625 353.63671875 C132.19201837 340.01527318 125.57557034 322.86549366 118.86105347 305.41281128 C116.28927131 298.72829326 113.67242243 292.0620031 111.046875 285.3984375 C107.26686581 275.80204766 103.49254752 266.20346553 99.7265625 256.6015625 C99.24633636 255.37719482 98.76611023 254.15282715 98.27133179 252.89135742 C97.31272125 250.44716051 96.35415345 248.00294684 95.39562988 245.55871582 C94.05400021 242.1376951 92.71211533 238.71677463 91.37011719 235.29589844 C85.16808456 219.48627197 78.96911762 203.67544432 72.77075195 187.86437988 C69.88905107 180.51366839 67.00716346 173.16303013 64.125 165.8125 C63.71554138 164.76822845 63.30608276 163.72395691 62.88421631 162.64804077 C56.72585028 146.94274207 50.56027002 131.2402867 44.39074707 115.53936768 C22.14331237 58.92098399 22.14331237 58.92098399 13.07141113 35.73779297 C12.37035533 33.94637454 11.66910965 32.1550304 10.96765137 30.36376953 C9.15267686 25.72878868 7.34075739 21.09264778 5.53546143 16.45388794 C5.01865366 15.12717104 4.50073938 13.80088455 3.98162842 12.47506714 C3.29183311 10.71249589 2.6066934 8.94810466 1.921875 7.18359375 C1.35871582 5.73811157 1.35871582 5.73811157 0.78417969 4.26342773 C0 2 0 2 0 0 Z " fill="#E96021" transform="translate(1214,1689)"/>
<path d="M0 0 C1.67096563 -0.00543738 3.34192644 -0.01256899 5.01287842 -0.02124023 C9.50058785 -0.0392848 13.98792441 -0.03248519 18.47563934 -0.01972389 C23.20333254 -0.00949725 27.93099677 -0.01901609 32.65869141 -0.02526855 C40.59348194 -0.03251712 48.52812288 -0.02303099 56.46289062 -0.00390625 C65.5970668 0.01785708 74.73088565 0.01080372 83.86505318 -0.01121187 C91.75009247 -0.02944589 99.63502507 -0.03188532 107.52007866 -0.0214572 C112.21081257 -0.01526599 116.90137931 -0.01426457 121.59210205 -0.02760315 C126.00502241 -0.03927843 130.41748841 -0.0309263 134.83036041 -0.00802612 C136.43620301 -0.00280066 138.04208481 -0.00414496 139.64791107 -0.01307678 C153.35417899 -0.08220157 169.0480615 0.72375247 179.6484375 10.51757812 C190.68879198 23.09941606 190.8120039 39.65659411 190.6484375 55.51757812 C185.86202918 56.51827927 181.07483358 57.51509053 176.28686523 58.50830078 C174.65806185 58.84674922 173.029479 59.18626081 171.40112305 59.52685547 C169.06095589 60.01614369 166.72002309 60.50160702 164.37890625 60.98632812 C163.65068161 61.13944458 162.92245697 61.29256104 162.17216492 61.45031738 C159.27132996 62.04774698 156.61933181 62.51757812 153.6484375 62.51757812 C153.6484375 51.95757813 153.6484375 41.39757813 153.6484375 30.51757812 C97.8784375 30.51757812 42.1084375 30.51757812 -15.3515625 30.51757812 C-15.3515625 81.99757813 -15.3515625 133.47757813 -15.3515625 186.51757812 C40.4184375 186.51757812 96.1884375 186.51757812 153.6484375 186.51757812 C153.6484375 166.05757812 153.6484375 145.59757812 153.6484375 124.51757812 C124.6084375 124.51757812 95.5684375 124.51757812 65.6484375 124.51757812 C65.6484375 114.94757812 65.6484375 105.37757813 65.6484375 95.51757812 C106.8984375 95.51757812 148.1484375 95.51757812 190.6484375 95.51757812 C190.6896875 107.87195312 190.7309375 120.22632812 190.7734375 132.95507812 C190.79164551 136.82025146 190.80985352 140.6854248 190.82861328 144.66772461 C190.83764648 149.4786377 190.83764648 149.4786377 190.83932495 151.74842834 C190.84234648 153.29519307 190.84927369 154.84195385 190.85958862 156.38868713 C190.91347447 164.91365613 190.72865203 173.3110671 189.75341797 181.78735352 C189.6746599 182.47509826 189.59590183 183.162843 189.51475716 183.87142849 C188.21263484 194.04628651 184.72717783 203.86864143 176.40234375 210.35742188 C162.61397171 219.47801541 144.7628124 218.66952867 128.90991211 218.6628418 C127.47100743 218.665842 126.03210355 218.66924648 124.59320068 218.67301941 C120.7187878 218.68177814 116.84439706 218.68419412 112.96997523 218.6848352 C110.53818904 218.68555058 108.10640831 218.6876941 105.67462349 218.69033241 C97.15881117 218.69956048 88.64301441 218.70367068 80.12719727 218.70288086 C72.24180339 218.70228145 64.35647822 218.71281299 56.4711017 218.72862452 C49.65872633 218.74178814 42.84637316 218.74706106 36.0339852 218.74642545 C31.98420478 218.74617295 27.93448547 218.74888451 23.88471794 218.7596035 C-28.5404367 218.88848948 -28.5404367 218.88848948 -41.3515625 208.51757812 C-56.03901152 193.83012911 -53.47948996 168.86383056 -53.49050903 149.84216309 C-53.48871888 147.28605124 -53.48666783 144.72993957 -53.484375 142.17382812 C-53.48504986 139.51452579 -53.48602027 136.85522484 -53.48727417 134.19592285 C-53.48908373 128.64184056 -53.48672161 123.08777165 -53.48193359 117.53369141 C-53.47649333 111.15006452 -53.47825685 104.7664696 -53.48376 98.38284349 C-53.48832592 92.86136623 -53.48892478 87.33989848 -53.48632133 81.81841993 C-53.48477757 78.53847112 -53.4849157 75.25854027 -53.48785782 71.97859192 C-53.5224953 22.52065716 -53.5224953 22.52065716 -42.3515625 10.51757812 C-31.3247346 0.0338274 -14.30912276 -0.07958929 0 0 Z " fill="#525254" transform="translate(653.3515625,2182.482421875)"/>
<path d="M0 0 C1.75874616 -0.00599324 3.51748971 -0.01280061 5.27622986 -0.02035522 C10.03070681 -0.03794401 14.78511167 -0.04270766 19.53961802 -0.0439868 C22.51779195 -0.0454133 25.49594785 -0.04969238 28.47411728 -0.05498123 C38.88623965 -0.07345982 49.29831099 -0.0816548 59.71044922 -0.08007812 C69.37956271 -0.07887817 79.04845246 -0.09995745 88.71750939 -0.13156545 C97.04826366 -0.15781726 105.37894526 -0.16844166 113.70974052 -0.16716731 C118.6722164 -0.16666017 123.63449337 -0.17220435 128.59692764 -0.19352341 C133.27073131 -0.21305587 137.9441494 -0.21292897 142.61796761 -0.19849014 C144.32057199 -0.19641923 146.02320148 -0.20099871 147.72576332 -0.21321106 C161.91374166 -0.30828154 177.33239569 0.43526058 188.50341797 10.29052734 C199.86066839 21.64777776 199.58954795 40.66462932 199.65005493 55.59085083 C199.64960175 56.69919281 199.64914856 57.80753479 199.64868164 58.94946289 C199.65204025 60.15285812 199.65539886 61.35625336 199.65885925 62.59611511 C199.66666629 65.8609147 199.67003298 69.12567586 199.67067504 72.39048362 C199.67139153 74.44100251 199.67353703 76.49151496 199.67617226 78.54203224 C199.68539216 85.72634929 199.68951144 92.91064793 199.6887207 100.0949707 C199.68812107 106.74208853 199.69865905 113.38912491 199.71446437 120.03622216 C199.72763462 125.78445677 199.73290065 131.53266507 199.73226529 137.2809146 C199.73201304 140.6957101 199.7347103 144.11043308 199.74544334 147.52521324 C199.87123493 195.9867211 199.87123493 195.9867211 187.62841797 208.45458984 C174.23339572 220.0274951 153.28304757 218.44232583 136.7175293 218.43579102 C135.17833374 218.4387913 133.63913893 218.44219579 132.09994507 218.44596863 C127.95707235 218.45472469 123.81422035 218.45714317 119.67133927 218.45778441 C117.07221343 218.45849974 114.47309269 218.4606431 111.87396812 218.46328163 C102.77575731 218.47250747 93.67756104 218.47662002 84.5793457 218.47583008 C76.14802919 218.47523012 67.71677681 218.48577306 59.28547651 218.50157374 C52.00516013 218.51472285 44.72486453 218.5200109 37.44453639 218.51937467 C33.11478866 218.51912183 28.78509803 218.52185304 24.45536232 218.53255272 C-31.19069842 218.66038417 -31.19069842 218.66038417 -43.66064453 206.41552734 C-53.81131668 194.66666426 -53.64744199 176.96832337 -53.6418457 162.28198242 C-53.64520432 161.0059314 -53.64856293 159.72988037 -53.65202332 158.41516113 C-53.6608001 154.93758738 -53.66319879 151.4600383 -53.6638391 147.98245454 C-53.66455337 145.80215533 -53.66669481 143.62186224 -53.66933632 141.44156456 C-53.67856986 133.81333397 -53.68267383 126.18512076 -53.68188477 118.55688477 C-53.68128498 111.48203988 -53.69182238 104.40727148 -53.70762843 97.33244592 C-53.72077041 91.22933245 -53.72606587 85.12624377 -53.72542936 79.02311629 C-53.72517626 75.39095626 -53.72792209 71.75886426 -53.73860741 68.12671852 C-53.75022757 64.06644215 -53.74550114 60.00633354 -53.73950195 55.94604492 C-53.74793121 54.17728249 -53.74793121 54.17728249 -53.75653076 52.37278748 C-53.69888731 36.90787156 -52.34387204 20.13781735 -40.87158203 8.66552734 C-29.28004493 -0.39218129 -13.93099266 -0.00950894 0 0 Z M-16.49658203 30.29052734 C-16.49658203 81.77052734 -16.49658203 133.25052734 -16.49658203 186.29052734 C42.57341797 186.29052734 101.64341797 186.29052734 162.50341797 186.29052734 C162.50341797 134.81052734 162.50341797 83.33052734 162.50341797 30.29052734 C103.43341797 30.29052734 44.36341797 30.29052734 -16.49658203 30.29052734 Z " fill="#525254" transform="translate(1317.49658203125,2182.70947265625)"/>
<path d="M0 0 C30.9375 -0.061875 61.875 -0.12375 93.75 -0.1875 C103.50788086 -0.21481201 113.26576172 -0.24212402 123.31933594 -0.27026367 C135.26220703 -0.28381348 135.26220703 -0.28381348 140.85845947 -0.28633118 C144.75548457 -0.28911889 148.65238627 -0.30033246 152.54937744 -0.31672668 C157.53017239 -0.33740073 162.51078953 -0.34345563 167.4916234 -0.33921683 C169.31336606 -0.34010237 171.13511535 -0.34599377 172.95682096 -0.35764539 C187.40207604 -0.44569734 201.76611247 0.104423 212.8125 10.74609375 C222.44160741 22.32509541 222.15293882 37.88517667 222.16796875 52.140625 C222.17129715 53.26587585 222.17462555 54.39112671 222.17805481 55.55047607 C222.18308632 57.91694738 222.18546431 60.28342569 222.18530273 62.64990234 C222.18748557 66.22635875 222.2056723 69.80250436 222.22460938 73.37890625 C222.31876902 110.14600751 222.31876902 110.14600751 212.1796875 122.15625 C199.66571793 134.11291728 181.45147159 133.33650893 165.3125 133.625 C163.53188365 133.66326145 161.75128419 133.70231765 159.97070312 133.7421875 C155.6472756 133.83728693 151.3237619 133.9216352 147 134 C148.71585347 135.57335521 150.4336968 137.14454047 152.15234375 138.71484375 C153.58694946 140.02763306 153.58694946 140.02763306 155.05053711 141.36694336 C158.70875984 144.632727 162.50137018 147.7060704 166.31640625 150.78515625 C168.94708557 152.95632827 171.47942424 155.20241357 174 157.5 C177.31989486 160.52282421 180.69764112 163.42512161 184.1875 166.25 C190.62711993 171.46518515 196.85455403 176.91331752 203.10351562 182.35351562 C207.22360212 185.93048052 211.37324426 189.47301794 215.51953125 193.01953125 C217.89676456 195.05303582 220.26855198 197.09266355 222.63671875 199.13671875 C223.84096768 200.17468589 225.04539257 201.21244893 226.25 202.25 C226.8277417 202.74814209 227.4054834 203.24628418 228.00073242 203.75952148 C232.32901337 207.47238947 236.76831859 211.01958684 241.3046875 214.4765625 C241.86414062 214.97929687 242.42359375 215.48203125 243 216 C243 216.66 243 217.32 243 218 C235.40644079 218.33204844 227.81477572 218.55824261 220.21557617 218.71411133 C217.63608879 218.779135 215.05707402 218.8675913 212.47924805 218.98071289 C189.87031859 219.94735507 189.87031859 219.94735507 183.61083984 215.29443359 C180.7514479 212.6570583 178.41137985 209.72512349 176.16342163 206.55917358 C174.58562396 204.44466893 172.72840166 202.84716887 170.6875 201.1875 C165.84078679 197.06220531 161.4534609 192.50138005 157 187.9609375 C153.76002463 184.68299366 150.49302931 181.50864439 147 178.5 C142.06537869 174.24967188 137.55746611 169.60741662 133 164.9609375 C129.76642051 161.6894645 126.50668685 158.52104154 123.01953125 155.51953125 C118.68685148 151.78840663 114.69068833 147.76629151 110.6875 143.6875 C109.29793562 142.27241561 107.906103 140.85955401 106.51171875 139.44921875 C105.90803467 138.83393311 105.30435059 138.21864746 104.68237305 137.5847168 C101.04025972 134.15401623 98.74840625 133.73950187 93.8762207 133.68115234 C92.59751099 133.66109131 91.31880127 133.64103027 90.00134277 133.62036133 C88.64282447 133.60862874 87.28430393 133.59715205 85.92578125 133.5859375 C84.69033569 133.56829346 83.45489014 133.55064941 82.18200684 133.5324707 C77.55897125 133.46931796 72.93571576 133.42319062 68.3125 133.375 C57.979375 133.25125 47.64625 133.1275 37 133 C37 161.05 37 189.1 37 218 C24.79 218 12.58 218 0 218 C0 146.06 0 74.12 0 0 Z M37 29 C37 53.75 37 78.5 37 104 C59.86131263 104.08744867 59.86131263 104.08744867 82.72265625 104.14648438 C92.04969245 104.16426341 101.37664715 104.18512855 110.70361328 104.22631836 C117.49735314 104.25630651 124.29102667 104.27559527 131.08483088 104.28226548 C134.6790473 104.28616188 138.27307408 104.29526 141.86722946 104.31719017 C145.88862112 104.34152606 149.9096872 104.34196398 153.93115234 104.34057617 C155.11079559 104.351362 156.29043884 104.36214783 157.50582886 104.3732605 C164.62995663 104.34673449 172.70438273 104.23086105 178.64816856 99.76036358 C184.34482488 93.65902507 184.30919883 85.19046597 184.30078125 77.34765625 C184.30720894 75.99830238 184.30720894 75.99830238 184.31376648 74.62168884 C184.3194779 72.72997881 184.32003373 70.83824683 184.31567383 68.9465332 C184.31251265 66.0739958 184.3360173 63.2024887 184.36132812 60.33007812 C184.36360154 58.48177212 184.36430442 56.63346337 184.36328125 54.78515625 C184.37709587 53.51443016 184.37709587 53.51443016 184.39118958 52.21803284 C184.33676595 45.10252817 183.15848247 38.74185611 178.6875 33.0625 C174.19310943 29.61331654 169.81493188 28.74893208 164.22927856 28.75949097 C162.53828285 28.75536697 162.53828285 28.75536697 160.81312561 28.75115967 C159.59104904 28.75835022 158.36897247 28.76554077 157.10986328 28.77294922 C155.16271172 28.77251114 155.16271172 28.77251114 153.17622375 28.77206421 C149.62911566 28.77149189 146.08214364 28.7832266 142.53506708 28.79721212 C138.82350516 28.80973962 135.11193991 28.81089157 131.40036011 28.81326294 C124.37754362 28.81947178 117.35478962 28.83587452 110.33200061 28.85596192 C100.83816366 28.88252613 91.34430955 28.89329838 81.85044479 28.90496635 C66.90024975 28.92375556 51.95018655 28.96360517 37 29 Z " fill="#525254" transform="translate(947,2183)"/>
<path d="M0 0 C30.7725 -0.061875 61.545 -0.12375 93.25 -0.1875 C102.95567383 -0.21481201 112.66134766 -0.24212402 122.66113281 -0.27026367 C134.54052734 -0.28381348 134.54052734 -0.28381348 140.1071167 -0.28633118 C143.98330875 -0.28911877 147.85937673 -0.3003319 151.73553467 -0.31672668 C156.68981803 -0.33740189 161.64392264 -0.34345542 166.59824514 -0.33921683 C168.41021906 -0.34010231 170.22219963 -0.34599302 172.0341363 -0.35764539 C185.66944162 -0.44121318 200.00149126 -0.08958729 210.75 9.4375 C220.63927493 20.70028534 221.61251099 32.43955617 221.49609375 46.88671875 C221.49624921 48.48086106 221.49774594 50.07500374 221.50050354 51.66914368 C221.5018773 54.98638925 221.4894991 58.30319705 221.46655273 61.62036133 C221.43810092 65.84652683 221.44093809 70.0719706 221.45364285 74.29819012 C221.46063452 77.58156882 221.45277234 80.86478405 221.44038582 84.14814186 C221.43591004 85.70567 221.43550012 87.26321591 221.43945122 88.82074547 C221.45659657 101.5157241 220.34723217 112.88234195 211.47265625 122.6875 C200.37931589 133.12829093 184.5008045 133.3056522 170.1652832 133.22705078 C168.70555123 133.22648539 167.24581868 133.22680572 165.78608704 133.22793579 C161.85706073 133.22850531 157.92815866 133.21681663 153.99916101 133.20278788 C149.880566 133.19021301 145.76196757 133.18910472 141.64335632 133.18673706 C133.85926583 133.18054203 126.07523209 133.16415819 118.29116648 133.14403808 C107.76190322 133.11741795 97.23262423 133.10669045 86.70333576 133.09503365 C70.13551474 133.076276 53.56781342 133.03641722 37 133 C37 161.05 37 189.1 37 218 C24.79 218 12.58 218 0 218 C0 146.06 0 74.12 0 0 Z M37 29 C37 53.42 37 77.84 37 103 C60.46775832 103.08741225 60.46775832 103.08741225 83.93554688 103.14648438 C93.50647812 103.16428109 103.07733011 103.185196 112.64819336 103.22631836 C119.61879536 103.25625406 126.58933301 103.2755829 133.5599975 103.28226548 C137.24969 103.2861707 140.93919845 103.29532566 144.62883186 103.31719017 C148.75141634 103.34142134 152.8736824 103.34196732 156.99633789 103.34057617 C158.21481918 103.351362 159.43330048 103.36214783 160.68870544 103.3732605 C168.09252406 103.34620888 173.40142538 102.91776321 179.3125 98.125 C184.28444525 91.86403191 184.15695569 84.05809167 184.16796875 76.41796875 C184.17129715 75.60435379 184.17462555 74.79073883 184.17805481 73.95246887 C184.18309824 72.23711712 184.18546394 70.52175564 184.18530273 68.80639648 C184.18748444 66.20604973 184.20565445 63.60613098 184.22460938 61.00585938 C184.22754495 59.3307306 184.22952865 57.65559983 184.23046875 55.98046875 C184.24124702 54.83157417 184.24124702 54.83157417 184.25224304 53.6594696 C184.22388378 46.83157044 183.55958763 40.47699211 179.875 34.625 C172.85038788 28.21122372 165.0002085 28.57867252 155.97460938 28.65942383 C154.68596985 28.65898575 153.39733032 28.65854767 152.06964111 28.65809631 C148.55770251 28.65724004 145.04607499 28.67480543 141.5342083 28.69581819 C137.85603309 28.71464695 134.17784976 28.71634029 130.49963379 28.71989441 C123.5441359 28.72919675 116.58878046 28.75378581 109.63334513 28.78394288 C100.22761301 28.82383348 90.82184159 28.83995641 81.41604614 28.85744953 C66.61059085 28.88560839 51.80543608 28.94538978 37 29 Z " fill="#525254" transform="translate(1969,2183)"/>
<path d="M0 0 C12.21 0 24.42 0 37 0 C37 61.38 37 122.76 37 186 C88.81 186 140.62 186 194 186 C194 124.62 194 63.24 194 0 C206.21 0 218.42 0 231 0 C231.04523893 22.42772302 231.08204266 44.85540879 231.10362434 67.28316593 C231.11391378 77.69798993 231.12792928 88.11278346 231.15087891 98.52758789 C231.17088445 107.61070494 231.18373337 116.69379991 231.18817699 125.77693838 C231.19077229 130.58130627 231.19682319 135.38561102 231.21146011 140.18995857 C231.22515753 144.72317349 231.22919838 149.25629997 231.22621536 153.78953362 C231.22676014 155.44255938 231.23066449 157.09558848 231.23841095 158.74859619 C231.40272893 195.66064003 231.40272893 195.66064003 219.125 208.1640625 C206.24179834 219.29476981 186.22617988 218.15625749 170.26196289 218.12939453 C168.95606705 218.13114685 167.6501712 218.13289917 166.30470276 218.13470459 C162.76331352 218.13921391 159.22195383 218.13751635 155.68056417 218.1343255 C151.94755943 218.1317674 148.21455698 218.134149 144.48155212 218.13571167 C138.21531731 218.13752361 131.94909434 218.13515299 125.68286133 218.13037109 C118.47389846 218.12493275 111.2649639 218.12669198 104.05600172 218.1321975 C97.82966754 218.13675938 91.60334179 218.13736414 85.37700647 218.13475883 C81.67450557 218.13321258 77.97201791 218.1329563 74.2695179 218.13629532 C70.13547255 218.13976404 66.00147474 218.13493437 61.86743164 218.12939453 C60.66648865 218.13141876 59.46554565 218.13344299 58.22821045 218.13552856 C21.73445212 218.04563732 21.73445212 218.04563732 10 207 C1.71954955 197.47656802 -0.1725938 185.57488193 -0.12025452 173.28675842 C-0.12110894 172.54165447 -0.12196337 171.79655052 -0.12284368 171.02886766 C-0.12448181 168.54924941 -0.11900459 166.06969984 -0.11352539 163.59008789 C-0.11324313 161.80582684 -0.11340201 160.02156567 -0.1139679 158.23730469 C-0.11425436 153.40521846 -0.10838194 148.57315715 -0.10139394 143.74107671 C-0.09513536 138.68687775 -0.09455462 133.63267819 -0.09336853 128.57847595 C-0.0902626 119.01285081 -0.08205916 109.44723712 -0.07201904 99.88161701 C-0.06083499 88.98928137 -0.05534167 78.09694518 -0.05032361 67.20460522 C-0.03987593 44.80306234 -0.02153962 22.40153515 0 0 Z " fill="#525254" transform="translate(1626,2183)"/>
<path d="M0 0 C53.64764861 -0.06230199 107.29416147 0.00211189 160.94140625 0.21875 C161.6201118 0.22148658 162.29881735 0.22422317 162.99808973 0.22704268 C180.29431542 0.29686756 197.59052453 0.37042399 214.88672864 0.44538212 C224.90584589 0.48876646 234.92496724 0.53109296 244.9440918 0.57275391 C245.66236952 0.5757409 246.38064724 0.5787279 247.12069095 0.58180541 C250.72847309 0.59680333 254.33625531 0.6117846 257.94403756 0.62675762 C287.2960361 0.74859542 316.64802207 0.87329205 346 1 C346 6.61 346 12.22 346 18 C304.37671594 18.02283938 262.75343277 18.04052349 221.13014368 18.05106533 C216.21005346 18.05231595 211.28996325 18.05361028 206.36987305 18.05493164 C204.90069357 18.05532511 204.90069357 18.05532511 203.40183371 18.05572652 C187.5670933 18.06007137 171.73235655 18.06795238 155.8976183 18.0771528 C139.63552798 18.08652233 123.37343957 18.09206259 107.11134666 18.09408849 C97.08628657 18.09545687 87.0612368 18.09977027 77.03617989 18.10791647 C70.15067283 18.11322466 63.26517106 18.11479507 56.3796621 18.11350138 C52.41410221 18.11286434 48.44856027 18.11380305 44.48300362 18.11920547 C29.62263532 18.13849697 14.82630128 18.12571956 0 17 C0 11.39 0 5.78 0 0 Z " fill="#4A97CF" transform="translate(933,1246)"/>
<path d="M0 0 C114.18 0 228.36 0 346 0 C346 5.61 346 11.22 346 17 C231.82 17 117.64 17 0 17 C0 11.39 0 5.78 0 0 Z " fill="#488FCC" transform="translate(933,1446)"/>
<path d="M0 0 C114.18 0 228.36 0 346 0 C346 5.61 346 11.22 346 17 C231.82 17 117.64 17 0 17 C0 11.39 0 5.78 0 0 Z " fill="#4992CD" transform="translate(933,1346)"/>
<path d="M0 0 C44.55 0 89.1 0 135 0 C135 5.61 135 11.22 135 17 C90.45 17 45.9 17 0 17 C0 11.39 0 5.78 0 0 Z " fill="#4CA3D3" transform="translate(784,1048)"/>
<path d="M0 0 C44.55 0 89.1 0 135 0 C135 5.61 135 11.22 135 17 C90.45 17 45.9 17 0 17 C0 11.39 0 5.78 0 0 Z " fill="#4DA7D5" transform="translate(784,948)"/>
<path d="M0 0 C44.55 0 89.1 0 135 0 C135 5.61 135 11.22 135 17 C90.45 17 45.9 17 0 17 C0 11.39 0 5.78 0 0 Z " fill="#50B0D7" transform="translate(784,749)"/>
<path d="M0 0 C44.55 0 89.1 0 135 0 C135 5.61 135 11.22 135 17 C90.45 17 45.9 17 0 17 C0 11.39 0 5.78 0 0 Z " fill="#51B5D8" transform="translate(784,649)"/>
<path d="M0 0 C44.55 0 89.1 0 135 0 C135 5.61 135 11.22 135 17 C90.45 17 45.9 17 0 17 C0 11.39 0 5.78 0 0 Z " fill="#52BAD9" transform="translate(784,549)"/>
<path d="M0 0 C13.86 0 27.72 0 42 0 C42 14.19 42 28.38 42 43 C28.14 43 14.28 43 0 43 C0 28.81 0 14.62 0 0 Z " fill="#4FADD6" transform="translate(1106,761)"/>
<path d="M0 0 C13.86 0 27.72 0 42 0 C42 14.19 42 28.38 42 43 C28.14 43 14.28 43 0 43 C0 28.81 0 14.62 0 0 Z " fill="#4FADD6" transform="translate(1019,761)"/>
<path d="M0 0 C13.86 0 27.72 0 42 0 C42 13.86 42 27.72 42 42 C28.14 42 14.28 42 0 42 C0 28.14 0 14.28 0 0 Z " fill="#4DA6D5" transform="translate(1106,941)"/>
<path d="M0 0 C13.86 0 27.72 0 42 0 C42 13.86 42 27.72 42 42 C28.14 42 14.28 42 0 42 C0 28.14 0 14.28 0 0 Z " fill="#4EA9D6" transform="translate(1106,851)"/>
<path d="M0 0 C22.77 0 45.54 0 69 0 C69 5.61 69 11.22 69 17 C46.23 17 23.46 17 0 17 C0 11.39 0 5.78 0 0 Z " fill="#4EABD6" transform="translate(850,849)"/>
</svg>
